<svg width="218" height="38" viewBox="0 0 218 38" fill="none" xmlns="http://www.w3.org/2000/svg">
<path d="M0.0500001 19.45C0.0500001 16.6167 0.516667 14.05 1.45 11.75C2.38333 9.41667 3.66667 7.43333 5.3 5.8C6.96667 4.16667 8.93333 2.91666 11.2 2.05C13.5 1.15 16.0167 0.699999 18.75 0.699999C21.5167 0.666665 24.05 1.08333 26.35 1.95C28.65 2.78333 30.6333 4.01666 32.3 5.65C33.9667 7.28333 35.2667 9.25 36.2 11.55C37.1333 13.85 37.6 16.4167 37.6 19.25C37.6 22.0167 37.1333 24.5333 36.2 26.8C35.2667 29.0667 33.9667 31.0167 32.3 32.65C30.6333 34.2833 28.65 35.5667 26.35 36.5C24.05 37.4 21.5167 37.8667 18.75 37.9C16.0167 37.9 13.5 37.4667 11.2 36.6C8.93333 35.7 6.96667 34.45 5.3 32.85C3.66667 31.2167 2.38333 29.2667 1.45 27C0.516667 24.7333 0.0500001 22.2167 0.0500001 19.45ZM6.65 19.05C6.65 20.95 6.93333 22.7 7.5 24.3C8.1 25.9 8.93333 27.2833 10 28.45C11.0667 29.6167 12.3333 30.5333 13.8 31.2C15.3 31.8667 16.9667 32.2 18.8 32.2C20.6333 32.2 22.3 31.8667 23.8 31.2C25.3 30.5333 26.5833 29.6167 27.65 28.45C28.7167 27.2833 29.5333 25.9 30.1 24.3C30.7 22.7 31 20.95 31 19.05C31 17.2833 30.7 15.6333 30.1 14.1C29.5333 12.5667 28.7167 11.2333 27.65 10.1C26.5833 8.93333 25.3 8.03333 23.8 7.4C22.3 6.73333 20.6333 6.4 18.8 6.4C16.9667 6.4 15.3 6.73333 13.8 7.4C12.3333 8.03333 11.0667 8.93333 10 10.1C8.93333 11.2333 8.1 12.5667 7.5 14.1C6.93333 15.6333 6.65 17.2833 6.65 19.05ZM75.0504 34.4C70.6837 36.7333 65.8004 37.9 60.4004 37.9C57.6671 37.9 55.1504 37.4667 52.8504 36.6C50.5837 35.7 48.6171 34.45 46.9504 32.85C45.3171 31.2167 44.0337 29.2667 43.1004 27C42.1671 24.7333 41.7004 22.2167 41.7004 19.45C41.7004 16.6167 42.1671 14.05 43.1004 11.75C44.0337 9.41667 45.3171 7.43333 46.9504 5.8C48.6171 4.16667 50.5837 2.91666 52.8504 2.05C55.1504 1.15 57.6671 0.699999 60.4004 0.699999C63.1004 0.699999 65.6337 1.03333 68.0004 1.7C70.3671 2.33333 72.4837 3.48333 74.3504 5.15L69.7004 9.85C68.5671 8.75 67.1837 7.9 65.5504 7.3C63.9504 6.7 62.2504 6.4 60.4504 6.4C58.6171 6.4 56.9504 6.73333 55.4504 7.4C53.9837 8.03333 52.7171 8.93333 51.6504 10.1C50.5837 11.2333 49.7504 12.5667 49.1504 14.1C48.5837 15.6333 48.3004 17.2833 48.3004 19.05C48.3004 20.95 48.5837 22.7 49.1504 24.3C49.7504 25.9 50.5837 27.2833 51.6504 28.45C52.7171 29.6167 53.9837 30.5333 55.4504 31.2C56.9504 31.8667 58.6171 32.2 60.4504 32.2C62.0504 32.2 63.5504 32.05 64.9504 31.75C66.3837 31.45 67.6504 30.9833 68.7504 30.35V22H61.5004V16.3H75.0504V34.4ZM82.3664 1.6H88.6664V37H82.3664V1.6ZM105.082 21.85L91.7824 1.6H99.6824L108.382 15.7L117.182 1.6H124.682L111.382 21.85V37H105.082V21.85ZM135.666 1.6H141.116L156.366 37H149.166L145.866 28.9H130.516L127.316 37H120.266L135.666 1.6ZM143.666 23.5L138.216 9.1L132.666 23.5H143.666ZM177.65 9.2C176.983 8.23333 176.083 7.53333 174.95 7.1C173.85 6.63333 172.683 6.4 171.45 6.4C170.716 6.4 170 6.48333 169.3 6.65C168.633 6.81666 168.016 7.08333 167.45 7.45C166.916 7.81666 166.483 8.3 166.15 8.9C165.816 9.46667 165.65 10.15 165.65 10.95C165.65 12.15 166.066 13.0667 166.9 13.7C167.733 14.3333 168.766 14.8833 170 15.35C171.233 15.8167 172.583 16.2667 174.05 16.7C175.516 17.1333 176.866 17.7333 178.1 18.5C179.333 19.2667 180.366 20.2833 181.2 21.55C182.033 22.8167 182.45 24.5 182.45 26.6C182.45 28.5 182.1 30.1667 181.4 31.6C180.7 33 179.75 34.1667 178.55 35.1C177.383 36.0333 176.016 36.7333 174.45 37.2C172.883 37.6667 171.233 37.9 169.5 37.9C167.3 37.9 165.183 37.5333 163.15 36.8C161.116 36.0667 159.366 34.8333 157.9 33.1L162.65 28.5C163.416 29.6667 164.416 30.5833 165.65 31.25C166.916 31.8833 168.25 32.2 169.65 32.2C170.383 32.2 171.116 32.1 171.85 31.9C172.583 31.7 173.25 31.4 173.85 31C174.45 30.6 174.933 30.1 175.3 29.5C175.666 28.8667 175.85 28.15 175.85 27.35C175.85 26.05 175.433 25.05 174.6 24.35C173.766 23.65 172.733 23.0667 171.5 22.6C170.266 22.1 168.916 21.6333 167.45 21.2C165.983 20.7667 164.633 20.1833 163.4 19.45C162.166 18.6833 161.133 17.6833 160.3 16.45C159.466 15.1833 159.05 13.5 159.05 11.4C159.05 9.56667 159.416 7.98333 160.15 6.65C160.916 5.31667 161.9 4.21667 163.1 3.35C164.333 2.45 165.733 1.78333 167.3 1.35C168.866 0.916665 170.466 0.699999 172.1 0.699999C173.966 0.699999 175.766 0.983332 177.5 1.55C179.266 2.11666 180.85 3.05 182.25 4.35L177.65 9.2ZM217.361 24C217.361 26.1333 216.994 28.0667 216.261 29.8C215.527 31.5 214.527 32.95 213.261 34.15C211.994 35.35 210.494 36.2833 208.761 36.95C207.027 37.5833 205.144 37.9 203.111 37.9C201.077 37.9 199.194 37.5833 197.461 36.95C195.727 36.2833 194.211 35.35 192.911 34.15C191.644 32.95 190.644 31.5 189.911 29.8C189.211 28.0667 188.861 26.1333 188.861 24V1.6H195.161V23.8C195.161 24.6667 195.294 25.5833 195.561 26.55C195.827 27.4833 196.261 28.35 196.861 29.15C197.494 29.95 198.311 30.6167 199.311 31.15C200.344 31.65 201.611 31.9 203.111 31.9C204.611 31.9 205.861 31.65 206.861 31.15C207.894 30.6167 208.711 29.95 209.311 29.15C209.944 28.35 210.394 27.4833 210.661 26.55C210.927 25.5833 211.061 24.6667 211.061 23.8V1.6H217.361V24Z" fill="black"/>
</svg>
